<?xml version="1.0" encoding="UTF-8"?>
<!DOCTYPE svg PUBLIC "-//W3C//DTD SVG 1.1//EN" "http://www.w3.org/Graphics/SVG/1.1/DTD/svg11.dtd">
<!-- Creator: CorelDRAW X8 -->
<svg xmlns="http://www.w3.org/2000/svg" xml:space="preserve" width="23.3841in" height="16.5478in" version="1.1" style="shape-rendering:geometricPrecision; text-rendering:geometricPrecision; image-rendering:optimizeQuality; fill-rule:evenodd; clip-rule:evenodd"
viewBox="0 0 23384 16548"
 xmlns:xlink="http://www.w3.org/1999/xlink">
 <defs>
  <style type="text/css">
   <![CDATA[
    .fil0 {fill:none}
    .fil2 {fill:#00C2FE}
    .fil1 {fill:black;fill-rule:nonzero}
   ]]>
  </style>
 </defs>
 <g id="Layer_x0020_1">
  <metadata id="CorelCorpID_0Corel-Layer"/>
  <polygon class="fil0" points="0,0 23384,0 23384,16548 0,16548 "/>
  <path class="fil1" d="M5899 12599c0,-160 -56,-297 -169,-410 -114,-114 -251,-170 -411,-170 -160,0 -297,56 -410,170 -114,113 -170,250 -170,410l0 1015 -435 0 0 -1015c0,-281 99,-521 297,-718 197,-198 437,-297 718,-297 281,0 521,99 718,297 29,28 56,58 80,88 24,-30 50,-60 79,-88 198,-198 437,-297 719,-297 281,0 520,99 718,297 198,197 297,437 297,718l0 1015 -435 0 0 -1015c0,-160 -57,-297 -170,-410 -113,-114 -250,-170 -410,-170 -160,0 -297,56 -411,170 -113,113 -169,250 -169,410l0 1015 -436 0 0 -1015zm4178 -410c114,113 170,250 170,410 0,160 -56,297 -170,410 -113,114 -250,170 -410,170 -160,0 -297,-56 -410,-170 -114,-113 -170,-250 -170,-410 0,-160 56,-297 170,-410 113,-114 250,-170 410,-170 160,0 297,56 410,170zm605 410c0,-281 -99,-521 -297,-718 -197,-198 -437,-297 -718,-297 -281,0 -521,99 -718,297 -198,197 -297,437 -297,718 0,281 99,521 297,718 197,198 437,297 718,297 219,0 412,-59 580,-179l0 179 435 0 0 -1015zm1157 -580l0 580c0,160 56,297 170,410 113,114 250,170 410,170l0 435c-281,0 -521,-99 -718,-297 -198,-197 -297,-437 -297,-718l0 -1596 435 0 0 581 580 0 0 435 -580 0zm1737 -1016l0 2611 -435 0 0 -2611 435 0zm1737 2611c-281,0 -521,-99 -719,-297 -198,-197 -297,-437 -297,-718 0,-281 99,-521 297,-718 198,-198 438,-297 719,-297 281,0 520,99 718,297 198,197 297,437 297,718 0,281 -99,521 -297,718 -198,198 -437,297 -718,297zm0 -435c160,0 297,-56 410,-170 113,-113 170,-250 170,-410 0,-160 -57,-297 -170,-410 -113,-114 -250,-170 -410,-170 -160,0 -297,56 -411,170 -113,113 -169,250 -169,410 0,160 56,297 169,410 114,114 251,170 411,170zm2172 435l-435 0 0 -1015c0,-281 99,-521 297,-718 197,-198 437,-297 718,-297 281,0 521,99 718,297 198,197 297,437 297,718l0 1015 -435 0 0 -1015c0,-160 -56,-297 -170,-410 -113,-114 -250,-170 -410,-170 -160,0 -297,56 -410,170 -114,113 -170,250 -170,410l0 1015z"/>
  <path class="fil2" d="M11693 9419c-231,0 -418,-187 -418,-418 0,-230 187,-417 418,-417 230,0 417,187 417,417 0,231 -187,418 -417,418zm1754 -5029c361,0 653,292 653,653 0,451 -528,623 -507,1155 24,625 507,592 507,1105 0,360 -292,653 -653,653 -361,0 -653,-293 -653,-653 0,-517 495,-486 507,-1121 11,-520 -507,-693 -507,-1139 0,-361 292,-653 653,-653zm-3075 168c124,110 206,266 218,442 53,233 90,483 334,668 498,378 779,-16 1175,310 279,229 319,641 90,919 -229,279 -641,319 -920,90 -398,-328 -60,-691 -542,-1104 -154,-131 -317,-168 -479,-180 -96,136 -172,290 -164,498 25,625 508,592 508,1105 0,361 -293,653 -654,653 -361,0 -653,-292 -653,-653 0,-517 495,-486 508,-1120 5,-295 -158,-478 -301,-663 -116,-108 -184,-250 -201,-398 -84,-591 637,-961 1081,-567zm1321 -789c-231,0 -418,-187 -418,-418 0,-231 187,-417 418,-417 230,0 417,186 417,417 0,231 -187,418 -417,418zm4077 2407c0,231 -187,418 -418,418 -230,0 -417,-187 -417,-418 0,-230 187,-417 417,-417 231,0 418,187 418,417zm-7321 0c0,231 -187,418 -417,418 -231,0 -418,-187 -418,-418 0,-230 187,-417 418,-417 230,0 417,187 417,417z"/>
 </g>
</svg>
